<svg xmlns="http://www.w3.org/2000/svg" width="1630" height="1826" class="img-fluid" viewBox="0 0 16300 18260"><g fill="#FFF"><path d="M0 9130V0h51l-1 1578c-1 867-1 1616 0 1663v87l473-2 472-1-2 6225c-1 3424-2 6416-3 6650v425l-470-1-470-1v317l471 2 471 3-1 430c-1 237-1 532-1 658v227H0zm1313 9105v-25h401c4186-2 4918-1 4930 9 9 8 843 11 2978 11 2535 0 2967-2 2977-14s279-14 1841-11l1830 3v-76c1-43 1-2628 0-5747V6570h-390V0h420v18260H1313z"/><path d="m12313 17438 2-473 143-3c83-1 142-7 142-12 0-7 528-10 1480-10h1480v950h-1480c-980 0-1480 3-1480 10 0 6-55 10-144 10h-144zm-2-2110-1-1318h2070l-1 1283c0 705-3 1293-5 1307l-4 25-877-2c-595-1-881 1-890 8-7 6-72 11-152 12l-140 2zM1314 13855l1-2770h5300l-2 2760c-1 1518-2 2765-3 2770 0 7-890 10-2648 10H1314zm13376 1463v-1308h870l-2 1306-3 1306-433 1-432 2zm-5950 802c-167-19-263-70-356-191-81-106-125-234-149-439-36-305-1-598 96-799 117-242 364-360 642-307 215 41 359 192 422 440 49 191 57 497 19 717-39 228-147 413-299 511-84 55-242 84-375 68m205-332c87-92 121-282 112-623-9-330-57-463-177-499-122-36-215 56-256 256-21 101-30 457-15 572 18 130 55 239 99 288 47 51 64 59 136 55 55-3 61-6 101-49m2400 331c-96-7-219-35-264-58-20-11-21-19-21-166v-154l73 34c112 53 183 68 311 63 100-3 116-6 158-31 91-53 127-106 135-196 19-205-136-293-470-268-67 4-133 9-147 10l-25 2 3-110c3-108 22-411 42-650 5-66 10-137 10-157v-38h878l7 139c4 77 4 144 0 150-4 8-102 11-304 11h-298l-13 160c-7 88-11 163-8 165 3 3 65 7 139 9 189 5 291 35 393 113 49 38 129 141 120 155-3 4 1 18 9 30 30 49 40 116 34 241-5 122-13 158-50 232-50 100-153 202-257 255-99 50-275 73-455 59m-4485-132c0-246 102-425 352-619 43-33 76-63 75-67-1-5 35-36 80-70 165-125 228-221 228-353 0-69-3-80-30-119-42-59-91-81-187-87-136-8-279 41-395 136l-43 34v-332l59-30c154-77 264-104 426-104 135 0 208 15 313 66 191 90 278 310 220 548-22 90-93 214-157 274-16 16-28 33-25 38 7 11-11 27-197 167-251 189-309 245-309 301 0 20 4 20 355 20h355v300H6860zm2760 0c0-250 120-459 362-631 37-26 67-51 65-55-1-4 32-35 73-68 162-131 226-219 237-326 15-145-62-226-222-235-135-7-257 32-371 119-28 22-55 39-60 39-6 0-9-64-7-157l3-158 53-31c124-71 272-109 432-108 177 0 304 40 399 125 101 90 146 196 146 346 0 148-47 273-149 393-25 30-45 57-44 61 2 7-86 84-137 119-19 13-37 27-40 30-10 10-86 67-135 100-64 43-163 137-181 172-8 15-14 36-14 48 0 20 4 20 350 20h350v300H9620zm1016-2493c-15-14-16-179-14-1707l3-1692 517-3 516-2 11 32c5 18 38 141 71 273 52 202 181 687 226 845 36 130 71 264 249 950 64 249 61 245 94 120 11-41 38-147 61-235 41-156 89-340 205-790 31-121 74-281 95-355 42-148 84-309 155-585 25-99 51-197 56-217l10-38h1039v1696c0 1456-2 1697-14 1710-12 11-67 14-308 14-161 0-299-4-305-8-10-6-13-288-13-1320 0-721-4-1313-9-1316-4-3-45 144-90 326s-100 397-122 477c-21 80-113 443-204 806-206 823-253 1006-267 1022-8 11-77 13-326 11l-316-3-12-25c-7-14-17-43-22-65-6-22-20-74-31-115s-23-86-25-100c-3-14-89-358-192-765-102-407-231-920-286-1140s-104-404-109-409c-5-6-9 514-9 1301v1311l-22 6c-13 3-152 6-310 6-248 0-289-2-302-16m-9321-3164-1-435h2648c2347 0 2648 2 2649 15 0 14 0 822-1 845 0 7-867 10-2647 10H1315zm8867-2096 3-1346 2095-2 2095-1-1 1345-1 1345-2097 3-2096 2zm-7634-74c-17-10-18-102-18-1700 0-928 2-1694 5-1702 4-11 158-12 888-7 485 4 918 10 962 13 351 29 615 197 758 481 50 101 66 155 77 265 26 248-47 466-220 653-45 50-133 118-187 145-23 12-44 26-47 31-4 5 15 17 41 26 372 132 583 422 583 800 0 184-33 315-122 490-91 178-252 331-423 402-144 61-293 82-640 94-448 15-1637 21-1657 9m1822-601c120-33 199-93 254-192 37-68 41-82 56-184 22-155-46-316-170-405-63-45-177-82-290-94-41-5-282-8-535-9h-460l-3 440c-1 242 0 446 3 453 8 20 1068 12 1145-9m-183-1473c215-32 337-143 363-329 11-78-4-188-34-245s-88-112-149-141c-110-51-159-55-672-56h-470l-3 393-2 392h437c322 0 462-4 530-14m2748-4383V395l1460 2 1460 2 3 1306 2 1305H6935zm3250-441c-3-3-5-288-5-634V0h5380l-2 633-3 632-2682 1c-1476 1-2685-1-2688-4M6939 78c-1-2-3-20-4-40l-4-38h2929v80H8400c-803 0-1460-1-1461-2"/></g><path d="m991 17603 1-658-471-3-471-2v-317l470 1 470 1v-425c1-234 2-3226 3-6650l2-6225-472 1-473 2v-318h945V5h320l1 35v35l2652 3 2652 2V0h155c168 0 156-4 159 55 1 20 9 20 1464 23l1462 2V0h320l2 633 3 632h5370l3-633 2-632h320v6570h390v5815c1 3119 1 5704 0 5747v76l-1830-3c-1562-3-1831-1-1841 11s-442 14-2977 14c-2135 0-2969-3-2978-11-12-10-739-11-4932-9-316 0-403 3-401 13 5 36 2 37-161 37H989zm11009-168v-475H9320c-1783 0-2680-3-2680-10s-889-9-2662-8l-2663 3v945h4275v-630h140v35c0 36 13 46 27 21 14-24 87-56 128-56 93 1 166 62 185 157 30 144-37 283-152 314-53 14-116 4-145-23-34-32-43-15-43 88v94h455c297 0 455 3 455 10s900 10 2680 10h2680zm600 465c0-7 500-10 1480-10h1480v-950h-1480c-952 0-1480 3-1480 10 0 5-59 11-142 12l-143 3-2 473-1 472h144c89 0 144-4 144-10m-6709-296c27-24 42-80 37-136-6-61-30-88-85-95-34-4-45-1-73 24-29 26-34 37-38 90-5 68 14 118 51 133 30 13 85 5 108-16m6109-1328v-374l38-63c22-35 42-77 46-94 4-16 11-48 16-70 23-102 5-307-31-351-6-7-8-17-6-21 3-5-10-31-29-58l-34-50v-246c0-238 1-247 20-252 23-6 24-20 13-190-4-80-9-107-20-107-10 0-13-38-13-195v-195H6934l-1 833c-1 815-2 833-22 878-36 80-51 159-51 266v103h76l-1 280-1 280h5066zm603 355c9-7 295-9 890-8l877 2 4-25c2-14 5-602 5-1307l1-1283h-2070l1 1318v1317l140-2c80-1 145-6 152-12m-5993-16c1-5 2-1252 3-2770l2-2760H1315l-1 2770v2770h2648c1758 0 2648-3 2648-10m8948-1299 2-1306h-870v2615l432-2 433-1zm-5698-3518V9895H6935l2 1895c2 1042 3 1898 3 1902s657 8 1460 8h1460zm4518 0-3-1903-2095 2-2095 1-3 1901-2 1901h4201zm-7768-1043c1-23 1-831 1-845-1-13-302-15-2649-15H1314l1 435v435h2648c1780 0 2647-3 2647-10m10-4304V3322H3978c-1454 0-2647 2-2653 4-7 3-9 1051-8 3122 1 1714 2 3120 2 3125 1 4 1194 7 2651 7h2650zm7754 1779 1-1345-2095 1-2095 2-3 1346-2 1346 2096-2 2097-3zm1184-4150-3-2491-2688-2-2687-2v4985h5380zM6618 1705l-3-1306-2650-2-2650-2v2615h5306zm3240 0-3-1306-1460-2-1460-2v2615h2925z"/><path d="M4518 17855c-2-3 5-56 17-117l22-113 68-3c52-2 66 0 63 10-3 7-18 58-34 113-15 55-32 103-38 107-12 9-90 11-98 3m2137-107c-3-8-4-115-3-238l3-225 67-3c63-3 68-1 73 20 3 13 4 120 3 238l-3 215-68 3c-49 2-69-1-72-10m272 5c-4-3-7-111-7-240v-233h141l-7 35c-5 27-3 35 9 35 8 0 21-7 28-17 20-24 89-53 127-53 43 0 91 21 122 54 25 27 25 30 28 227l3 200-68-3-68-3-5-163c-5-157-6-165-29-183-27-22-49-24-84-8-40 18-47 50-47 203 0 122-2 145-16 150-21 8-119 8-127-1m-5112-19c-16-2-47-9-67-14l-38-11v-138l53 24c80 38 201 33 229-9 27-39-7-75-122-128-130-60-160-97-160-194 0-77 25-115 98-151 51-25 67-28 157-28 55 0 112 4 128 8 26 7 27 10 27 72v65l-27-11c-61-23-127-29-172-16-53 15-69 36-56 73 10 28 31 41 153 98 71 33 131 93 133 134 8 150-60 218-226 226-44 2-93 2-110 0m568-3c-102-26-163-111-163-230 0-130 85-225 215-238 64-7 115 9 162 50 45 40 60 74 68 165l8 72h-156c-148 0-155 1-150 19 3 11 15 29 28 41 20 19 35 22 98 22 42 0 84-5 95-11 33-18 37-13 34 38-3 40-8 51-28 60-32 14-171 22-211 12m149-277c10-9-11-68-29-81-9-7-31-13-48-13s-39 6-48 13c-20 15-48 68-41 79 6 9 157 11 166 2m310 229c-43-116-142-406-142-414 0-5 33-9 74-9h74l50 178c43 151 51 173 58 147 4-16 26-95 48-175l42-145 72-3c54-2 72 0 71 10 0 7-37 114-83 238l-82 225-81 3-80 3zm417 53c-3-3-3-110-1-238l3-233 70-3 69-3-2 238-3 238-65 3c-36 2-68 1-71-2m261-346v-350h140v700h-140zm267 344c-4-4-7-162-7-351l1-343h149l-2 348-3 347-65 3c-36 2-69 0-73-4m401-3c-101-21-161-105-160-223 0-106 33-170 112-216 37-22 57-27 115-27 142 1 215 78 215 226v59h-150c-160 0-166 2-135 47 19 27 77 44 125 37 60-8 84-12 103-19 15-6 17-1 17 39s-3 47-30 61c-34 18-159 27-212 16m148-303c-13-71-94-92-140-37-14 17-26 39-26 50 0 17 8 19 86 19h87zm804 303c-79-12-90-23-90-91 0-33 4-60 9-60s28 9 52 20c51 23 160 27 199 7 29-14 39-59 18-84-7-9-51-34-98-56-109-50-136-70-160-117-49-96-8-203 94-245 53-22 189-29 251-13l50 13 3 63c2 34 1 62-1 62-3 0-24-7-48-16-88-31-201-16-215 28-4 13 1 30 13 47 21 27 23 29 145 86 99 47 133 92 133 174-1 114-78 177-226 185-46 3-104 1-129-3m1063-6c-92-40-103-187-18-242 28-18 170-53 216-53 5 0 9-9 9-19 0-48-94-66-180-36-23 8-47 15-52 15s-8-21-6-47c3-46 5-48 43-61 60-20 155-26 203-13 58 16 107 61 121 113 7 27 11 101 9 198l-3 155h-130l-5-33-5-34-24 26c-41 43-119 57-178 31m184-117c16-15 23-33 23-60v-38l-47 6c-98 13-134 54-87 101 20 20 31 24 57 19 17-3 41-16 54-28m289-429c-29-23-35-64-12-95 18-24 107-27 130-4 30 32 29 58-3 90-35 36-77 39-115 9m-3391-11c-28-16-35-28-35-65 0-53 58-78 124-53 47 17 47 97 1 118-32 15-64 15-90 0m8282-11385c-9-8-9-3375-1-3397 6-14 74-16 673-16 661 0 1046 10 1171 31 296 50 570 274 683 559 116 294 108 710-20 964-94 188-202 303-387 414-209 125-365 150-1008 159l-428 6-2 641-3 641-336 3c-184 1-338-1-342-5m1513-1897c106-24 196-70 256-132 120-123 162-301 110-468-50-161-154-256-341-309-63-18-107-21-462-24l-393-4v962l378-4c307-3 391-7 452-21"/><g fill="#310298"><path d="M6936 16383c1-148 2-274 3-280 1-10 112-13 521-13h520v-300h-355c-351 0-355 0-355-20 0-56 58-112 309-301 186-140 204-156 197-167-3-5 9-22 25-38 41-38 86-105 119-173 49-103 65-201 50-318-32-253-230-397-545-397-162 0-272 27-426 104l-59 30v332l43-34c116-95 259-144 395-136 96 6 145 28 187 87 27 39 30 50 30 119 0 132-63 228-228 353-45 34-81 65-80 70 1 4-32 34-75 67-91 71-188 167-237 236-19 27-36 51-39 53-2 3-4-367-3-821l1-826h5066v390h-850v38c0 20-5 91-10 157-20 239-39 542-42 650l-3 110 25-2c14-1 80-6 147-10 334-25 489 63 470 268-8 90-44 143-135 196-42 25-58 28-158 31-128 5-199-10-311-63l-73-34v154c0 178-8 163 112 196 192 53 492 38 629-31 54-28 153-104 178-138l20-27 1 378v377H6935zm2074-285c202-61 355-271 404-557 38-220 30-526-19-717-63-248-207-399-422-440-94-18-169-18-255 1-227 48-384 217-452 486-75 295-53 713 48 944 28 62 99 159 147 199 124 105 361 141 549 84m1720-158v-150h-350c-346 0-350 0-350-20 0-12 6-33 14-48 18-35 117-129 181-172 49-33 125-90 135-100 3-3 21-17 40-30 51-35 139-112 137-119-1-4 19-31 44-61 102-120 149-245 149-393 0-297-201-470-545-471-160-1-308 37-432 108l-53 31-3 158c-2 93 1 157 7 157 5 0 32-17 60-39 114-87 236-126 371-119 160 9 237 90 222 235-11 107-75 195-237 326-41 33-74 64-73 68 2 4-28 29-65 55-242 172-362 381-362 631v103h1110z"/><path d="M8765 15831c-72-31-132-161-156-337-15-115-6-471 15-572 41-200 134-292 256-256 120 36 168 169 177 499 9 341-25 531-112 623-40 43-46 46-101 49-33 1-68-1-79-6m3180-682c-101-80-203-110-394-115-74-2-136-6-139-9-3-2 1-77 8-165l13-160h567v245c0 135-1 245-2 244-2 0-25-18-53-40M1319 9573c0-5-1-1411-2-3125-1-2071 1-3119 8-3122 6-2 1199-4 2653-4h2642v6258H3970c-1457 0-2650-3-2651-7m2886-1422c347-12 496-33 640-94 171-71 332-224 423-402 89-175 122-306 122-490 0-378-211-668-583-800-26-9-45-21-41-26 3-5 24-19 47-31 54-27 142-95 187-145 173-187 246-405 220-653-11-110-27-164-77-265-143-284-407-452-758-481-44-3-477-9-962-13-730-5-884-4-888 7-3 8-5 774-5 1702 0 1598 1 1690 18 1700 20 12 1209 6 1657-9"/><path d="M3225 7568c-3-7-4-211-3-453l3-440h460c253 1 494 4 535 9 113 12 227 49 290 94 124 89 192 250 170 405-15 102-19 116-56 184-55 99-134 159-254 192-77 21-1137 29-1145 9m-3-1860 3-393h470c513 1 562 5 672 56 61 29 119 84 149 141s45 167 34 245c-26 186-148 297-363 329-68 10-208 14-530 14h-437z"/></g><path fill="#CE0000" d="M6940 13692c0-4-1-860-3-1902l-2-1895h2925v3805H8400c-803 0-1460-4-1460-8m3242-1893 3-1901 2095-1 2095-2 3 1903 3 1902h-4201zm1066 1705 22-6v-1311c0-787 4-1307 9-1301 5 5 54 189 109 409s184 733 286 1140c103 407 189 751 192 765 2 14 14 59 25 100s25 93 31 115c5 22 15 51 22 65l12 25 316 3c249 2 318 0 326-11 14-16 61-199 267-1022 91-363 183-726 204-806 22-80 77-295 122-477s86-329 90-326c5 3 9 595 9 1316 0 1032 3 1314 13 1320 6 4 144 8 305 8 241 0 296-3 308-14 12-13 14-254 14-1710v-1696h-1039l-10 38c-5 20-31 118-56 217-71 276-113 437-155 585-21 74-64 234-95 355-116 450-164 634-205 790-23 88-50 194-61 235-33 125-30 129-94-120-178-686-213-820-249-950-45-158-174-643-226-845-33-132-66-255-71-273l-11-32-516 2-517 3-3 1692c-2 1528-1 1693 14 1707 13 14 54 16 302 16 158 0 297-3 310-6M1315 1703V395l2650 2 2650 2 3 1306 3 1305H1315zm4-1625c0-2-1-20-2-41l-2-37h5305v80H3970c-1457 0-2650-1-2651-2"/><g fill="#FFCE00"><path d="M6640 17900c0-7-158-10-455-10h-455v-94c0-103 9-120 43-88 29 27 92 37 145 23 115-31 182-170 152-314-19-95-92-156-185-157-41 0-114 32-128 56-14 25-27 15-27-21v-35h-140v630H1315v-945l2663-3c1773-1 2662 1 2662 8s897 10 2680 10h2680v950H9320c-1780 0-2680-3-2680-10m-2024-48c6-4 23-52 38-107 16-55 31-106 34-113 3-10-11-12-63-10l-68 3-22 113c-12 61-19 114-17 117 8 8 86 6 98-3m2182-312c1-118 0-225-3-238-5-21-10-23-73-20l-67 3-3 225c-1 123 0 230 3 238 3 9 23 12 72 10l68-3zm256 214c14-5 16-28 16-150 0-153 7-185 47-203 35-16 57-14 84 8 23 18 24 26 29 183l5 163 68 3 68 3-3-200c-3-197-3-200-28-227-31-33-79-54-122-54-38 0-107 29-127 53-7 10-20 17-28 17-12 0-14-8-9-35l7-35h-141v233c0 129 3 237 7 240 8 9 106 9 127 1m-4997-50c74-36 100-90 94-196-2-41-62-101-133-134-122-57-143-70-153-98-13-37 3-58 56-73 45-13 111-7 172 16l27 11v-65c0-62-1-65-27-72-16-4-73-8-128-8-90 0-106 3-157 28-73 36-98 74-98 151 0 97 30 134 160 194 115 53 149 89 122 128-28 42-149 47-229 9l-53-24v138l38 11c102 28 234 21 309-16m537 15c20-9 25-20 28-60 3-51-1-56-34-38-11 6-53 11-95 11-63 0-78-3-98-22-13-12-25-30-28-41-5-18 2-19 150-19h156l-8-72c-8-91-23-125-68-165-47-41-98-57-162-50-130 13-215 108-215 238 0 119 61 204 163 230 40 10 179 2 211-12m512-209c46-124 83-231 83-238 1-10-17-12-71-10l-72 3-42 145c-22 80-44 159-48 175-7 26-15 4-58-147l-50-178h-74c-41 0-74 4-74 9 0 8 99 298 142 414l21 58 80-3 81-3zm292-13 2-238-69 3-70 3-3 233c-2 128-2 235 1 238s35 4 71 2l65-3zm262-107v-350h-140v700h140zm268-2 2-348h-149l-1 343c0 189 3 347 7 351s37 6 73 4l65-3zm472 327c27-14 30-21 30-61s-2-45-17-39c-85 32-199 24-228-18-31-45-25-47 135-47h150v-59c0-148-73-225-215-226-58 0-78 5-115 27-79 46-112 110-112 216-1 118 59 202 160 223 53 11 178 2 212-16m1002-12c65-35 92-81 93-154 0-82-34-127-133-174-122-57-124-59-145-86-12-17-17-34-13-47 14-44 127-59 215-28 24 9 45 16 48 16 2 0 3-28 1-62l-3-63-50-13c-62-16-198-9-251 13-102 42-143 149-94 245 24 47 51 67 160 117 47 22 91 47 98 56 21 25 11 70-18 84-39 20-148 16-199-7-24-11-47-20-52-20s-9 27-9 60c0 51 3 61 23 72 35 19 104 27 196 22 66-3 94-10 133-31m919 27c19-6 46-22 60-36l24-26 5 34 5 33h130l3-155c2-97-2-171-9-198-14-52-63-97-121-113-48-13-143-7-203 13-38 13-40 15-43 61-2 26 1 47 6 47s29-7 52-15c86-30 180-12 180 36 0 10-4 19-9 19-46 0-188 35-216 53-85 55-74 202 18 242 38 17 70 18 118 5m470-560c32-32 33-58 3-90-23-23-112-20-130 4-23 31-17 72 12 95 38 30 80 27 115-9m-3416-2c46-21 46-101-1-118-66-25-124 0-124 53 0 37 7 49 35 65 26 15 58 15 90 0"/><path d="M2366 17452c-7-11 21-64 41-79 9-7 31-13 48-13s39 6 48 13c18 13 39 72 29 81-9 9-160 7-166-2m1804-11c0-11 12-33 26-50 46-55 127-34 140 37l7 32h-87c-78 0-86-2-86-19m2106 176c-47-47-11-88 87-101l47-6v38c0 45-29 78-77 88-26 5-37 1-57-19m-493 3c-37-15-56-65-51-133 4-53 9-64 38-90 28-25 39-28 73-24 55 7 79 34 85 95 5 56-10 112-37 136-23 21-78 29-108 16m4397-13542V1585l2687 2 2688 2 3 2491 2 2490h-5380zm2068 1066 2-641 428-6c536-8 696-24 859-87 139-53 288-153 380-253 193-212 281-502 253-842-29-374-183-635-479-814-66-40-194-85-281-100-125-21-510-31-1171-31-599 0-667 2-673 16-8 22-8 3389 1 3397 4 4 158 6 342 5l336-3z"/><path d="M12250 3430v-481l393 4c355 3 399 6 462 24 187 53 291 148 341 309 52 167 10 345-110 468-60 62-150 108-256 132-61 14-145 18-452 21l-378 4zM46 3045c2-60 4-770 4-1577V0h945v3010H51l-4 73c-2 39-3 23-1-38"/></g></svg>